<?xml version="1.0" encoding="UTF-8" standalone="no"?>
<!-- Created with Inkscape (http://www.inkscape.org/) -->

<svg
   width="210mm"
   height="297mm"
   viewBox="0 0 210 297"
   version="1.1"
   id="svg5"
   inkscape:version="1.1.1 (3bf5ae0d25, 2021-09-20)"
   sodipodi:docname="crosslinearW.svg"
   xmlns:inkscape="http://www.inkscape.org/namespaces/inkscape"
   xmlns:sodipodi="http://sodipodi.sourceforge.net/DTD/sodipodi-0.dtd"
   xmlns="http://www.w3.org/2000/svg"
   xmlns:svg="http://www.w3.org/2000/svg">
  <sodipodi:namedview
     id="namedview7"
     pagecolor="#ffffff"
     bordercolor="#666666"
     borderopacity="1.0"
     inkscape:pageshadow="2"
     inkscape:pageopacity="0.0"
     inkscape:pagecheckerboard="0"
     inkscape:document-units="mm"
     showgrid="false"
     inkscape:zoom="0.74118967"
     inkscape:cx="397.33419"
     inkscape:cy="669.86902"
     inkscape:window-width="1920"
     inkscape:window-height="1017"
     inkscape:window-x="-8"
     inkscape:window-y="-8"
     inkscape:window-maximized="1"
     inkscape:current-layer="layer1" />
  <defs
     id="defs2">
    <style
       type="text/css"
       id="style9">
   <![CDATA[
    .str0 {stroke:#FF3300;stroke-width:40;stroke-linecap:round}
    .fil0 {fill:none}
   ]]>
  </style>
  </defs>
  <g
     inkscape:label="Слой 1"
     inkscape:groupmode="layer"
     id="layer1">
    <g
       style="clip-rule:evenodd;fill:#f9f9f9;fill-rule:evenodd;image-rendering:optimizeQuality;shape-rendering:geometricPrecision;text-rendering:geometricPrecision"
       id="g25"
       transform="matrix(0.26458333,0,0,0.26458333,40.231571,72.002004)">
      <g
         id="Layer_x0020_1"
         inkscape:label="Layer 1"
         inkscape:groupmode="layer"
         style="fill:#f9f9f9">
  <metadata
   id="CorelCorpID_0Corel-Layer" />

  <path
   class="fil0 str0"
   d="M 425,75 75,425 M 425,425 75,75"
   id="path14"
   style="fill:#f9f9f9" />

 </g>
    </g>
    <path
       style="fill:#f9f9f9;stroke-width:0.356971"
       d="m 57.829327,188.88752 c -2.422612,-1.49644 -3.28682,-3.58418 -2.468716,-5.96388 0.366126,-1.065 5.249278,-6.14601 22.172354,-23.0708 l 21.702819,-21.705 -21.702819,-21.70501 C 60.609889,99.518045 55.726737,94.437026 55.360611,93.372036 c -0.657169,-1.911577 -0.185356,-3.678843 1.361494,-5.09974 1.472223,-1.352346 2.582761,-1.69599 4.411551,-1.365102 1.179003,0.213318 3.89987,2.802067 23.11543,21.993016 11.978523,11.96317 21.938524,21.75123 22.133324,21.75123 0.19481,0 9.99191,-9.65414 21.77135,-21.45365 12.27086,-12.291772 21.90771,-21.667209 22.56584,-21.953726 0.63178,-0.27504 1.57373,-0.500073 2.09323,-0.500073 1.32552,0 3.49014,1.301006 4.21982,2.536245 0.72625,1.229453 0.82954,3.433837 0.21735,4.638644 -0.2395,0.471328 -10.17694,10.61566 -22.08321,22.54296 l -21.64777,21.686 21.64777,21.68599 c 11.90627,11.9273 21.84371,22.07163 22.08321,22.54296 0.61219,1.20481 0.5089,3.40919 -0.21735,4.63865 -0.72968,1.23523 -2.8943,2.53624 -4.21982,2.53624 -0.5195,0 -1.46145,-0.22503 -2.09323,-0.50007 -0.65813,-0.28652 -10.29498,-9.66196 -22.56584,-21.95373 -11.77944,-11.79951 -21.5788,-21.45365 -21.77636,-21.45365 -0.19756,0 -9.996918,9.65414 -21.776353,21.45365 -12.270863,12.29177 -21.907707,21.66721 -22.565844,21.95373 -1.560779,0.67947 -2.926466,0.62619 -4.205876,-0.16409 z"
       id="path101" />
    <path
       style="fill:#f9f9f9;stroke-width:0.356971"
       d="m 56.89709,188.10275 c -1.833756,-1.51154 -2.355544,-3.33272 -1.48846,-5.19514 0.426075,-0.91518 8.02234,-8.79761 22.237148,-23.07489 L 99.235784,138.14784 77.647717,116.46073 C 63.477174,102.22517 55.83663,94.296025 55.41057,93.38362 c -0.546182,-1.169644 -0.584594,-1.605227 -0.242301,-2.747698 0.585322,-1.953633 2.621015,-3.537183 4.547135,-3.537183 1.94953,0 1.195713,-0.692211 25.745195,23.641111 11.047424,10.95015 20.322061,19.90937 20.610311,19.90937 0.28825,0 9.56295,-8.95552 20.61043,-19.90114 25.13909,-24.907305 23.78048,-23.649341 25.54136,-23.649341 2.87332,0 5.3694,2.869454 4.85966,5.5866 -0.22157,1.181111 -2.89432,3.997365 -22.20903,23.401481 l -21.95715,22.05879 21.94988,22.05149 c 17.19588,17.27549 21.99835,22.29381 22.17364,23.17027 0.60369,3.01843 -1.77176,5.82512 -4.93011,5.82512 -1.62414,0 -0.46918,1.07495 -25.60152,-23.82782 C 115.56061,154.5172 106.36866,145.642 106.08152,145.642 c -0.28715,0 -9.403084,8.80431 -20.257643,19.56512 -25.104417,24.88761 -24.123739,23.98537 -26.070702,23.98537 -1.183687,0 -1.835978,-0.24888 -2.856085,-1.08974 z"
       id="path150" />
  </g>
</svg>
